<svg version="1.2" xmlns="http://www.w3.org/2000/svg" viewBox="0 0 385 69" width="385" height="69">
	<title>Proyecto nuevo</title>
	<style>
		.s0 { fill: #0d6efd } 
	</style>
	<path id="Cursos " class="s0" aria-label="Cursos "  d="m40.7 68.9q-20.6 0-30.3-8.7-9.7-8.7-9.7-24.9 0-16.2 9.7-25.7 9.7-9.4 30.3-9.4 28.7 0 38.4 19.7-8.2 2.8-19.2 8.4-2.6-5.1-8.3-7.5-5.7-2.5-11.6-2.5-8.7 0-13 4.7-4.2 4.5-4.2 11.2 0 7.3 4.5 11.9 4.6 4.6 14.1 4.6 7.5 0 12-2.5 4.4-2.5 6.5-8 7.5 4 19.1 9-4.6 11-15.2 15.3-10.6 4.4-23.1 4.4zm101.5-50.5q-0.7 11.5-0.7 24.7 0 13.4 0.7 24.9-5.8-0.3-9.2-0.3-3.2 0-9.2 0.3l-2.6-13.3q-2.1 7.2-6.5 10.8-4.5 3.4-10.4 3.4-5.4 0-9.4-2.4-4-2.4-6.1-6.5-2-4.1-2-9.2v-13q0-12.1-0.5-19.4h20.5q-0.6 13.4-0.6 26.4 0 4 1.9 6.4 2 2.4 5 2.4 2.8 0 4.9-2.5 2.2-2.5 2.7-6.9v-2.1q0.1-7.1 0.1-9.8 0-6.3-0.3-13.9zm25.6 0l2.7 13.5q3.8-13.8 19-13.8 2.6 0 5.1 0.4l-2.9 20.4q-6.6-2.5-10.7-2.5-5.2 0-7.7 3.1-2.4 3.1-2.4 8.2l-0.1 6q0 6.4 0.3 14.3h-21.7q0.8-13.1 0.8-24.7 0-11.6-0.8-24.9 6 0.3 9.2 0.3 3.4 0 9.2-0.3zm57 50.5q-7.6 0-15.5-2.1-7.8-2.2-14.7-6.5l9.5-13q4.2 3 10.1 4.7 5.9 1.7 10.2 1.7 4 0 6.2-1.1 2.3-1.2 2.3-3 0-1.5-1.1-2.3-1.1-0.8-3-0.8-1.2 0-2.7 0.1-1.5 0.1-2.4 0.2-4.7 0.5-9.7 0.5-8.1 0-13.2-3-5-3.1-5-10 0-8 7.6-12.3 7.5-4.5 22.1-4.5 7.2 0 14.5 2.1 7.3 2 13 6.1l-10.5 10.5q-5.2-2.7-9.7-3.8-4.4-1.2-9-1.2-3.2 0-5.4 1.3-2.3 1.3-2.3 2.9 0 1.3 0.9 2 1 0.7 2.5 0.7 1.6 0 4.3-0.2 6.6-0.5 9.9-0.5 9.5 0 14.6 3.2 5.2 3.2 5.2 9.7 0 9.8-7.6 14.2-7.6 4.4-21.1 4.4zm64.3 0q-15.5 0-22.9-7.1-7.2-7.1-7.2-18.8 0-11.3 7.2-18.4 7.4-7.1 22.9-7.1 10.4 0 17.4 3.5 7.1 3.3 10.5 9.1 3.3 5.8 3.3 12.9 0 11.7-7.8 18.8-7.7 7.1-23.4 7.1zm0.4-15.4q5.9 0 8.8-2.8 2.9-2.9 2.9-7.6 0-4.4-2.9-7.2-2.9-3-8.8-3-5.9 0-8.7 2.9-2.7 2.8-2.7 7.3 0 4.7 2.7 7.6 2.8 2.8 8.7 2.8zm66.5 15.4q-7.6 0-15.5-2.1-7.8-2.2-14.7-6.5l9.5-13q4.2 3 10.1 4.7 5.9 1.7 10.2 1.7 4.1 0 6.2-1.1 2.3-1.2 2.3-3 0-1.5-1.1-2.3-1.1-0.8-3-0.8-1.2 0-2.7 0.1-1.5 0.1-2.4 0.2-4.7 0.5-9.7 0.5-8.1 0-13.1-3-5-3.1-5-10 0-8 7.5-12.3 7.5-4.5 22.2-4.5 7.1 0 14.4 2.1 7.3 2 13 6.1l-10.5 10.5q-5.1-2.7-9.7-3.8-4.4-1.2-9-1.2-3.1 0-5.4 1.3-2.3 1.3-2.3 2.9 0 1.3 0.9 2 1 0.7 2.6 0.7 1.5 0 4.2-0.2 6.7-0.5 9.9-0.5 9.5 0 14.6 3.2 5.2 3.2 5.2 9.7 0 9.8-7.6 14.2-7.6 4.4-21.1 4.4z"/>
</svg>